<svg width="32" height="32" viewBox="0 0 32 32" fill="none" xmlns="http://www.w3.org/2000/svg">
<path fill-rule="evenodd" clip-rule="evenodd" d="M31.0604 16.4877C31.0604 15.3668 30.9598 14.289 30.773 13.2543H15.8849V19.3691H24.3924C24.0259 21.3451 22.9122 23.0193 21.238 24.1402V28.1065H26.3468C29.3359 25.3545 31.0604 21.3019 31.0604 16.4877Z" fill="#4285F4"/>
<path fill-rule="evenodd" clip-rule="evenodd" d="M15.8849 31.9363C20.153 31.9363 23.7313 30.5208 26.3468 28.1065L21.238 24.1402C19.8224 25.0886 18.0117 25.6491 15.8849 25.6491C11.7676 25.6491 8.28274 22.8684 7.03967 19.132H1.75842L1.75842 23.2276C4.35953 28.3939 9.70544 31.9363 15.8849 31.9363Z" fill="#34A853"/>
<path fill-rule="evenodd" clip-rule="evenodd" d="M7.03977 19.132C6.72362 18.1835 6.54398 17.1704 6.54398 16.1285C6.54398 15.0866 6.72362 14.0735 7.03977 13.125V9.02936H1.75853C0.687905 11.1634 0.0771484 13.5777 0.0771484 16.1285C0.0771484 18.6793 0.687905 21.0936 1.75853 23.2277L7.03977 19.132Z" fill="#FBBC05"/>
<path fill-rule="evenodd" clip-rule="evenodd" d="M15.8849 6.60788C18.2057 6.60788 20.2895 7.40545 21.9278 8.97187L26.4617 4.4379C23.7241 1.88709 20.1458 0.320679 15.8849 0.320679C9.70544 0.320679 4.35953 3.86307 1.75842 9.02935L7.03967 13.125C8.28274 9.38862 11.7676 6.60788 15.8849 6.60788Z" fill="#EA4335"/>
</svg>
