<svg width="112" height="98" viewBox="0 0 112 98" fill="none" xmlns="http://www.w3.org/2000/svg">
<path fill-rule="evenodd" clip-rule="evenodd" d="M55.9999 3.46863C26.3491 3.46863 2.33325 24.3021 2.33325 50.0239C2.33325 70.6245 17.6953 88.0246 39.0278 94.1931C41.7112 94.6005 42.7174 93.2038 42.7174 91.9818C42.7174 90.8761 42.6503 87.2098 42.6503 83.3108C29.1666 85.464 25.6783 80.4593 24.6049 77.8406C24.0012 76.5021 21.3849 72.3704 19.1041 71.2647C17.2258 70.3918 14.5424 68.2386 19.037 68.1804C23.2633 68.1222 26.282 71.5556 27.2882 72.9523C32.1182 79.9938 39.8328 78.0152 42.9187 76.7931C43.3883 73.767 44.797 71.7302 46.3399 70.5663C34.3991 69.4025 21.9216 65.3871 21.9216 47.5797C21.9216 42.5168 24.0012 38.3269 27.4224 35.068C26.8857 33.9041 25.0074 29.1322 27.9591 22.7309C27.9591 22.7309 32.4537 21.5088 42.7174 27.5028C47.0108 26.4553 51.5724 25.9315 56.1341 25.9315C60.6958 25.9315 65.2574 26.4553 69.5508 27.5028C79.8145 21.4506 84.3091 22.7309 84.3091 22.7309C87.2607 29.1322 85.3824 33.9041 84.8457 35.068C88.267 38.3269 90.3466 42.4586 90.3466 47.5797C90.3466 65.4453 77.802 69.4025 65.8612 70.5663C67.8066 72.0212 69.4837 74.8145 69.4837 79.1791C69.4837 85.4058 69.4166 90.4105 69.4166 91.9818C69.4166 93.2038 70.4228 94.6587 73.1062 94.1931C94.3045 88.0246 109.667 70.5663 109.667 50.0239C109.667 24.3021 85.6507 3.46863 55.9999 3.46863Z" fill="#218BFF"/>
</svg>
